<svg width="241" height="44" viewBox="0 0 241 44" fill="none" xmlns="http://www.w3.org/2000/svg">
<path d="M40.7934 15.4727C40.8423 18.0245 39.1322 20.5634 36.7882 21.3356C36.8669 20.0845 35.8289 19.034 34.5953 19.0383H9.21802C-3.01012 18.9564 -3.10796 0.179037 9.13719 0H27.3103C24.0751 1.60486 21.3823 4.29689 19.7531 7.55407H9.34989C8.29915 7.55407 7.40581 8.38239 7.36753 9.44799C7.32924 10.5653 8.20982 11.4821 9.3031 11.4821H34.6463C36.8648 11.4821 38.9025 12.2608 40.5083 13.5658C40.6977 14.1784 40.7934 14.8256 40.7934 15.4727Z" fill="#232323"/>
<path d="M49.7479 15.2636C49.7734 20.0049 47.5103 24.5908 43.7881 27.4295C39.1895 31.0771 32.3448 31.5258 27.3336 28.5771C27.257 29.2566 27.4846 40.6136 27.2315 41.0191C27.0315 42.1667 26.1042 43.064 25.1576 43.6335C17.46 46.2004 20.0613 34.6493 19.6508 30.5465V23.3893V20.7771H29.2904C29.5627 21.092 29.8604 21.3876 30.1795 21.6529C30.2518 21.7154 30.322 21.7715 30.3964 21.8276C35.1928 25.719 42.4629 21.847 42.5012 15.777C43.0585 9.05557 34.3803 4.73711 29.6839 9.74152H20.6612C20.9483 8.98439 21.3014 8.24883 21.7055 7.54994H21.7161C29.6052 -5.77863 49.5841 -0.269457 49.7479 15.2636Z" fill="#232323"/>
<path d="M17.9344 23.3871V30.5443L3.68772 30.54C0.614203 30.65 -1.01933 26.517 1.19487 24.4312C1.83298 23.784 2.71568 23.3828 3.68985 23.3828C3.68772 23.3828 17.9344 23.3871 17.9344 23.3871Z" fill="#232323"/>
<path d="M40.7934 15.4727C40.8423 18.0245 39.1322 20.5634 36.7882 21.3356C36.8669 20.0845 35.8289 19.034 34.5953 19.0383H9.21802C-3.01012 18.9564 -3.10796 0.179037 9.13719 0H27.3103C24.0751 1.60486 21.3823 4.29689 19.7531 7.55407H9.34989C8.29915 7.55407 7.40581 8.38239 7.36753 9.44799C7.32924 10.5653 8.20982 11.4821 9.3031 11.4821H34.6463C36.8648 11.4821 38.9025 12.2608 40.5083 13.5658C40.6977 14.1784 40.7934 14.8256 40.7934 15.4727Z" fill="url(#paint0_linear_208_1664)"/>
<path d="M49.7479 15.2636C49.7734 20.0049 47.5103 24.5908 43.7881 27.4295C39.1895 31.0771 32.3448 31.5258 27.3336 28.5771C27.257 29.2566 27.4846 40.6136 27.2315 41.0191C27.0315 42.1667 26.1042 43.064 25.1576 43.6335C17.46 46.2004 20.0613 34.6493 19.6508 30.5465V23.3893V20.7771H29.2904C29.5627 21.092 29.8604 21.3876 30.1795 21.6529C30.2518 21.7154 30.322 21.7715 30.3964 21.8276C35.1928 25.719 42.4629 21.847 42.5012 15.777C43.0585 9.05557 34.3803 4.73711 29.6839 9.74152H20.6612C20.9483 8.98439 21.3014 8.24883 21.7055 7.54994H21.7161C29.6052 -5.77863 49.5841 -0.269457 49.7479 15.2636Z" fill="url(#paint1_linear_208_1664)"/>
<path d="M17.9344 23.3871V30.5443L3.68772 30.54C0.614203 30.65 -1.01933 26.517 1.19487 24.4312C1.83298 23.784 2.71568 23.3828 3.68985 23.3828C3.68772 23.3828 17.9344 23.3871 17.9344 23.3871Z" fill="url(#paint2_linear_208_1664)"/>
<path d="M67.6637 32.0391C65.6558 32.0391 63.9372 31.6918 62.5078 30.9972C61.0785 30.3026 59.7853 29.2607 58.6282 27.8694L61.8187 24.6338C62.5504 25.6174 63.4012 26.3767 64.3711 26.916C65.3389 27.4553 66.5215 27.7249 67.9147 27.7249C69.1675 27.7249 70.165 27.4725 70.9095 26.9699C71.6539 26.4673 72.0262 25.7728 72.0262 24.8862C72.0262 24.1204 71.8135 23.497 71.3881 23.0182C70.9627 22.5393 70.4011 22.1316 69.7056 21.7951C69.0079 21.4608 68.2401 21.1545 67.4021 20.8784C66.564 20.6022 65.7238 20.2852 64.8858 19.9249C64.0478 19.5647 63.2778 19.116 62.5823 18.5768C61.8846 18.0375 61.3231 17.3429 60.8998 16.493C60.4744 15.6431 60.2617 14.5711 60.2617 13.2768C60.2617 11.7431 60.6276 10.4381 61.3614 9.35958C62.0931 8.28104 63.097 7.45488 64.3732 6.87894C65.6494 6.303 67.0894 6.01611 68.6974 6.01611C70.399 6.01611 71.9347 6.33967 73.3045 6.9868C74.6743 7.63392 75.7973 8.47302 76.6715 9.50195L73.481 12.7376C72.7493 11.9243 71.9985 11.3247 71.2307 10.9407C70.4628 10.5568 69.595 10.3648 68.6251 10.3648C67.5148 10.3648 66.6406 10.5805 66.0025 11.0119C65.3644 11.4433 65.0453 12.0667 65.0453 12.8821C65.0453 13.5767 65.258 14.1397 65.6834 14.5711C66.1088 15.0025 66.6704 15.3735 67.3659 15.6863C68.0614 15.9969 68.8314 16.2967 69.6694 16.5858C70.5075 16.8727 71.3476 17.1962 72.1857 17.5565C73.0237 17.9167 73.7916 18.3826 74.4892 18.9586C75.1869 19.5345 75.7484 20.2701 76.1717 21.1696C76.5971 22.0691 76.8098 23.1756 76.8098 24.4936C76.8098 26.8427 75.9951 28.687 74.3637 30.0287C72.7302 31.3682 70.4968 32.0391 67.6637 32.0391Z" fill="black"/>
<path d="M87.1194 32.0391C85.5603 32.0391 84.1543 31.6443 82.9015 30.8527C81.6487 30.0611 80.6682 28.9847 79.9599 27.6171C79.2516 26.2517 78.8964 24.718 78.8964 23.0161C78.8964 21.2904 79.2516 19.7459 79.9599 18.3805C80.6682 17.0151 81.6487 15.9365 82.9015 15.1449C84.1543 14.3532 85.5603 13.9585 87.1194 13.9585C88.3466 13.9585 89.4463 14.2109 90.4162 14.7135C91.384 15.2161 92.1582 15.9171 92.7368 16.8166C93.3153 17.7161 93.628 18.7278 93.6769 19.8538V26.1071C93.6301 27.2569 93.3174 28.275 92.7368 29.1616C92.1582 30.0481 91.384 30.7492 90.4162 31.2647C89.4463 31.7824 88.3466 32.0391 87.1194 32.0391ZM87.9702 27.6904C89.2698 27.6904 90.3205 27.2525 91.1245 26.3789C91.9264 25.5053 92.3305 24.3729 92.3305 22.9815C92.3305 22.0713 92.1476 21.2624 91.7817 20.5548C91.4159 19.8473 90.9075 19.2973 90.2588 18.9004C89.6079 18.5056 88.8465 18.3072 87.9723 18.3072C87.1215 18.3072 86.3706 18.5056 85.7219 18.9004C85.071 19.2951 84.5648 19.8473 84.199 20.5548C83.8331 21.2624 83.6502 22.0713 83.6502 22.9815C83.6502 23.9156 83.8331 24.7374 84.199 25.4428C84.5648 26.1503 85.0732 26.7003 85.7219 27.0951C86.3685 27.4941 87.1194 27.6904 87.9702 27.6904ZM92.0795 31.681V27.0088L92.824 22.768L92.0795 18.5984V14.3209H96.6866V31.681H92.0795Z" fill="black"/>
<path d="M100.798 31.6811V5.69482H105.441V31.6811H100.798ZM112.316 31.6811V21.7262C112.316 20.6951 111.997 19.8582 111.359 19.2111C110.721 18.5639 109.893 18.2404 108.879 18.2404C108.217 18.2404 107.626 18.3849 107.107 18.6718C106.588 18.9587 106.179 19.3664 105.884 19.8948C105.588 20.4212 105.441 21.0338 105.441 21.7284L103.633 20.7943C103.633 19.4289 103.916 18.2361 104.484 17.2179C105.052 16.1998 105.837 15.4038 106.841 14.8279C107.845 14.2519 108.996 13.965 110.297 13.965C111.597 13.965 112.748 14.2519 113.754 14.8279C114.758 15.4038 115.542 16.1933 116.11 17.2007C116.678 18.208 116.961 19.3685 116.961 20.6865V31.6854H112.316V31.6811Z" fill="black"/>
<path d="M128.017 32.039C126.505 32.039 125.165 31.7154 123.995 31.0683C122.825 30.4212 121.911 29.5239 121.249 28.372C120.588 27.2223 120.256 25.8913 120.256 24.3814V14.3208H124.933V24.2757C124.933 24.994 125.05 25.6109 125.288 26.1265C125.525 26.642 125.88 27.0303 126.352 27.2956C126.824 27.5588 127.379 27.6903 128.017 27.6903C128.985 27.6903 129.742 27.3905 130.285 26.7908C130.827 26.1912 131.099 25.3521 131.099 24.2757V14.3208H135.743V24.3836C135.743 25.9172 135.417 27.2589 134.769 28.4087C134.118 29.5584 133.209 30.4514 132.04 31.0856C130.87 31.7219 129.528 32.039 128.017 32.039Z" fill="black"/>
<path d="M139.429 31.6811V5.69482H144.072V31.6811H139.429Z" fill="black"/>
<path d="M155.341 32.0391C153.782 32.0391 152.376 31.6443 151.123 30.8527C149.87 30.0611 148.89 28.9847 148.181 27.6171C147.473 26.2517 147.118 24.718 147.118 23.0161C147.118 21.2904 147.473 19.7459 148.181 18.3805C148.89 17.0151 149.87 15.9365 151.123 15.1449C152.376 14.3532 153.782 13.9585 155.341 13.9585C156.568 13.9585 157.668 14.2109 158.638 14.7135C159.605 15.2161 160.38 15.9171 160.958 16.8166C161.537 17.7161 161.849 18.7278 161.898 19.8538V26.1071C161.852 27.2569 161.539 28.275 160.958 29.1616C160.38 30.0481 159.605 30.7492 158.638 31.2647C157.668 31.7824 156.568 32.0391 155.341 32.0391ZM156.192 27.6904C157.491 27.6904 158.542 27.2525 159.346 26.3789C160.148 25.5053 160.552 24.3729 160.552 22.9815C160.552 22.0713 160.369 21.2624 160.003 20.5548C159.637 19.8473 159.129 19.2973 158.48 18.9004C157.829 18.5056 157.068 18.3072 156.194 18.3072C155.343 18.3072 154.592 18.5056 153.943 18.9004C153.292 19.2951 152.786 19.8473 152.42 20.5548C152.055 21.2624 151.872 22.0713 151.872 22.9815C151.872 23.9156 152.055 24.7374 152.42 25.4428C152.786 26.1503 153.295 26.7003 153.943 27.0951C154.59 27.4941 155.341 27.6904 156.192 27.6904ZM160.301 31.681V27.0088L161.045 22.768L160.301 18.5984V14.3209H164.908V31.681H160.301Z" fill="black"/>
<path d="M167.531 18.4537V14.3207H180.182V18.4537H167.531ZM171.536 31.6809V7.09668H176.179V31.6809H171.536Z" fill="black"/>
<path d="M183.302 31.6813V6.41329H188.122V31.6791H183.302V31.6813ZM186.846 22.3001V18.3096H192.623C193.378 18.3096 194.063 18.1542 194.678 17.8415C195.292 17.5309 195.777 17.08 196.13 16.4933C196.486 15.9066 196.662 15.1947 196.662 14.3556C196.662 13.5403 196.486 12.8349 196.13 12.2352C195.775 11.6377 195.292 11.1804 194.678 10.8698C194.063 10.5592 193.378 10.4017 192.623 10.4017H186.846V6.41113H193.118C194.701 6.41113 196.124 6.73469 197.39 7.38182C198.653 8.02894 199.653 8.9457 200.384 10.1321C201.116 11.3185 201.484 12.727 201.484 14.3556C201.484 15.9842 201.118 17.3928 200.384 18.5792C199.653 19.7656 198.653 20.6823 197.39 21.3295C196.126 21.9766 194.701 22.3001 193.118 22.3001H186.846Z" fill="#6452A3"/>
<path d="M211.017 32.0391C209.458 32.0391 208.052 31.6443 206.799 30.8527C205.547 30.0611 204.566 28.9847 203.858 27.6171C203.149 26.2517 202.794 24.718 202.794 23.0161C202.794 21.2904 203.149 19.7459 203.858 18.3805C204.566 17.0151 205.547 15.9365 206.799 15.1449C208.052 14.3532 209.458 13.9585 211.017 13.9585C212.244 13.9585 213.344 14.2109 214.314 14.7135C215.282 15.2161 216.056 15.9171 216.635 16.8166C217.213 17.7161 217.526 18.7278 217.575 19.8538V26.1071C217.528 27.2569 217.215 28.275 216.635 29.1616C216.056 30.0481 215.282 30.7492 214.314 31.2647C213.344 31.7824 212.244 32.0391 211.017 32.0391ZM211.868 27.6904C213.168 27.6904 214.218 27.2525 215.022 26.3789C215.824 25.5053 216.228 24.3729 216.228 22.9815C216.228 22.0713 216.045 21.2624 215.68 20.5548C215.314 19.8473 214.805 19.2973 214.157 18.9004C213.506 18.5056 212.744 18.3072 211.87 18.3072C211.019 18.3072 210.268 18.5056 209.62 18.9004C208.969 19.2951 208.463 19.8473 208.097 20.5548C207.731 21.2624 207.548 22.0713 207.548 22.9815C207.548 23.9156 207.731 24.7374 208.097 25.4428C208.463 26.1503 208.971 26.7003 209.62 27.0951C210.266 27.4941 211.017 27.6904 211.868 27.6904ZM215.977 31.681V27.0088L216.722 22.768L215.977 18.5984V14.3209H220.584V31.681H215.977Z" fill="#6452A3"/>
<path d="M230.084 31.8233L222.924 14.3208H227.957L232.706 27.6903H231.005L235.931 14.3208H240.999L233.381 31.8233H230.084ZM225.334 38.9395L230.543 27.7615L233.378 31.8233L230.26 38.9395H225.334Z" fill="#6452A3"/>
<defs>
<linearGradient id="paint0_linear_208_1664" x1="19.2553" y1="-2.86453" x2="30.6662" y2="42.2639" gradientUnits="userSpaceOnUse">
<stop stop-color="#8D51A0"/>
<stop offset="1" stop-color="#65B6DB"/>
</linearGradient>
<linearGradient id="paint1_linear_208_1664" x1="19.2552" y1="-2.86435" x2="30.6661" y2="42.2641" gradientUnits="userSpaceOnUse">
<stop stop-color="#8D51A0"/>
<stop offset="1" stop-color="#65B6DB"/>
</linearGradient>
<linearGradient id="paint2_linear_208_1664" x1="19.2552" y1="-2.86441" x2="30.6661" y2="42.2641" gradientUnits="userSpaceOnUse">
<stop stop-color="#8D51A0"/>
<stop offset="1" stop-color="#65B6DB"/>
</linearGradient>
</defs>
</svg>
