<svg width="236" height="328" viewBox="0 0 236 328" fill="none" xmlns="http://www.w3.org/2000/svg">
<path d="M210.997 155.21C210.905 161.794 209.545 165.659 207.815 168.255C206.088 170.851 202.195 173.26 199.509 173.923C196.822 174.587 198.552 138.268 198.552 138.268C198.552 138.268 202.382 137.633 204.048 138.109C205.715 138.585 207.076 139.851 208.68 142.984C208.923 143.46 209.15 143.923 209.355 144.386C209.545 144.813 209.721 145.243 209.879 145.687C210.678 147.93 211.063 150.546 210.997 155.21Z" fill="#5D68B0"/>
<path d="M210.004 146.212L201.004 149.932V148.247L209.422 144.932C209.633 145.353 209.829 145.776 210.004 146.212Z" fill="#3C4CA0"/>
<path d="M200.37 173.234C196.532 177.367 191.128 178.618 188.087 178.775C185.05 178.932 185.05 178.932 185.05 178.932L153.004 112.164C153.004 112.164 167.023 111.076 178.024 113.614C179.532 113.96 180.915 114.415 182.193 114.956C183.792 115.631 185.22 116.444 186.502 117.357C191.694 121.045 194.499 126.356 196.447 130.806C198.262 134.955 200.576 140.736 202.123 146.377C202.224 146.745 202.322 147.114 202.417 147.479C203.117 150.206 203.62 152.873 203.78 155.277C204.294 162.96 204.209 169.097 200.37 173.234Z" fill="#4C5FAB"/>
<path d="M132.053 113.361C132.053 113.361 132.984 112.69 133.574 111.924C134.165 111.158 133.79 110.265 133.79 110.265C133.79 110.265 128.895 110.617 126.121 107.013C123.348 103.412 121.547 101.368 122.106 94.0359C122.665 86.7035 125.337 78.8302 125.337 78.8302L130.899 73.9321L134.877 75.2911L138.854 77.5853L148.674 79.3288C148.674 79.3288 149.173 81.157 149.338 81.623C149.503 82.089 150.914 83.7054 150.955 84.4712C150.997 85.237 156.467 86.0648 156.467 86.0648C156.467 86.0648 159.825 85.3641 159.99 85.3641C160.156 85.3641 162.084 85.7031 162.001 86.1495C161.919 86.596 161.754 89.2943 161.754 89.2943L160.708 90.2394C160.708 90.2394 161.153 93.5862 159.971 95.4568C158.79 97.3274 156.718 98.5592 155.578 98.9633C154.437 99.3674 152.645 99.0806 152.429 99.2175C152.213 99.3543 151.839 99.9735 152.191 100.407C152.544 100.844 152.998 100.938 153.446 100.863C153.894 100.788 153.891 100.788 153.891 100.788C153.891 100.788 152.782 103.105 152.782 104.911C152.782 106.716 152.795 112.308 152.795 112.308L152.655 114.899C152.655 114.899 148.43 117.832 147.391 118.513C146.355 119.194 144.325 120.934 143.496 121.446C142.667 121.958 140.885 122.72 140.265 122.763C139.642 122.805 139.518 123.229 136.577 122.551C133.635 121.87 131.605 121.019 131.563 120.85C131.522 120.68 131.109 119.064 131.023 119.276C130.941 119.487 131.478 115.534 131.478 115.534L132.053 113.361Z" fill="#EAADBD"/>
<path d="M101.813 326.284C151.088 325.374 190.961 320.784 190.873 316.032C190.785 311.28 150.769 308.165 101.494 309.075C52.2195 309.985 12.3461 314.576 12.4342 319.328C12.5222 324.08 52.5385 327.194 101.813 326.284Z" fill="#F3F6FF"/>
<path d="M46.7606 303.2C46.7606 303.2 46.9288 307.559 47.8379 309.077C48.7437 310.595 50.4551 312.491 52.7973 312.784C55.1396 313.078 57.7147 313.185 59.7172 311.183C61.723 309.18 61.2377 305.476 61.2377 305.476L46.7606 303.2Z" fill="#2E3082"/>
<path d="M71.794 309.659C71.794 309.659 69.7915 307.362 66.7213 306.752C65.0423 306.419 61.9172 305.974 60.1864 306.936C58.3747 307.944 57.1648 309.985 57.0904 312.071C57.0257 313.87 57.2975 315.61 59.2741 317.977C61.2508 320.348 63.0301 321.023 65.0197 321.32C65.217 321.349 66.1099 321.401 66.4172 321.378C66.5143 321.371 65.7379 321.097 65.8252 321.023C68.038 319.143 71.794 309.659 71.794 309.659Z" fill="#444FA1"/>
<path d="M66.8215 321.387C70.5539 321.387 73.5796 318.254 73.5796 314.389C73.5796 310.525 70.5539 307.391 66.8215 307.391C63.0891 307.391 60.0634 310.525 60.0634 314.389C60.0634 318.254 63.0891 321.387 66.8215 321.387Z" fill="#5862AD"/>
<path d="M66.6112 316.543C67.6654 316.543 68.5199 315.635 68.5199 314.515C68.5199 313.395 67.6654 312.487 66.6112 312.487C65.5571 312.487 64.7025 313.395 64.7025 314.515C64.7025 315.635 65.5571 316.543 66.6112 316.543Z" fill="#2E3594"/>
<path d="M111.126 70.7332L21.3649 88.1492C16.2567 89.1407 11.3102 85.8112 10.317 80.7088L0.174975 28.619C-0.818203 23.5198 2.5172 18.5821 7.62867 17.5907L97.39 0.174665C102.498 -0.816753 107.445 2.51273 108.438 7.61514L118.58 59.7049C119.573 64.8041 116.238 69.7418 111.126 70.7332Z" fill="url(#paint0_linear_236_416)"/>
<path d="M31.8629 48.4247L18.049 50.8564C17.1626 51.0114 16.3214 50.4237 16.1629 49.5388L14.3577 39.3243C14.2024 38.4395 14.7912 37.5999 15.6776 37.4416L29.4916 35.0099C30.378 34.8549 31.2191 35.4426 31.3776 36.3275L33.1828 46.542C33.3381 47.4268 32.7461 48.2697 31.8629 48.4247Z" fill="#8D80BC"/>
<path d="M56.5952 58.6102C56.7182 59.2432 56.3041 59.8567 55.67 59.9795L20.7114 66.7611C20.0773 66.8839 19.4627 66.4705 19.3397 65.8375C19.2168 65.2046 19.6309 64.591 20.265 64.4683L55.2236 57.6866C55.8576 57.5639 56.4723 57.9772 56.5952 58.6102Z" fill="#4350A2"/>
<path d="M45.6121 68.2079C45.735 68.8408 45.3209 69.4544 44.6868 69.5771L22.1155 73.9561C21.4814 74.0789 20.8667 73.6655 20.7438 73.0325C20.6208 72.3996 21.0349 71.786 21.669 71.6633L44.2404 67.2843C44.8745 67.1615 45.4891 67.5749 45.6121 68.2079Z" fill="#4350A2"/>
<path d="M94.0643 63.0116C92.8156 64.3099 91.1657 65.2496 89.2634 65.6178C84.3428 66.5736 79.5807 63.3669 78.6264 58.4582C77.6688 53.5463 80.8845 48.7959 85.8018 47.84C87.7041 47.4719 89.5869 47.7238 91.2336 48.4601C89.2537 50.5075 88.2735 53.4592 88.859 56.4722C89.4446 59.4852 91.4568 61.8523 94.0643 63.0116Z" fill="#EF3F33"/>
<path d="M96.4357 54.9997C97.0213 58.0095 96.0411 60.9579 94.0644 63.0086C91.4601 61.8492 89.4414 59.4821 88.8559 56.4691C88.2703 53.4561 89.2506 50.5077 91.2304 48.457C93.8315 49.6228 95.8502 51.9932 96.4357 54.9997Z" fill="#F26B2D"/>
<path d="M106.668 53.0137C107.626 57.9256 104.41 62.676 99.4929 63.6319C97.5907 64 95.7111 63.7481 94.0644 63.0118C96.0411 60.9612 97.0213 58.0095 96.4358 55.003C95.8502 51.9932 93.8347 49.6261 91.2305 48.4635C92.4792 47.1653 94.1259 46.2256 96.0281 45.8574C100.949 44.9015 105.711 48.105 106.668 53.0137Z" fill="#F9C644"/>
<path d="M130.149 302.589C130.149 302.589 130.576 304.533 132.284 306.458C133.992 308.386 135.163 309.097 138.819 308.971C142.475 308.845 146.289 306.665 148.424 304.534C150.559 302.402 151.319 301.01 151.319 301.01L130.149 302.589Z" fill="#2E3082"/>
<path d="M156.256 306.842C156.256 306.842 155.703 305.402 153.979 304.233C152.254 303.064 149.391 302.447 147.602 302.56C145.813 302.673 143.251 304.598 142.316 306.287C141.381 307.976 141.743 310.828 142.031 311.593C142.559 312.994 143.565 314.309 145.085 315.591C146.606 316.87 148.961 317.57 151.083 317.603C153.202 317.635 153.568 309.242 153.568 309.242L156.256 306.842Z" fill="#444FA1"/>
<path d="M151.041 317.599C154.682 317.599 157.634 314.612 157.634 310.927C157.634 307.243 154.682 304.256 151.041 304.256C147.4 304.256 144.448 307.243 144.448 310.927C144.448 314.612 147.4 317.599 151.041 317.599Z" fill="#5862AD"/>
<path d="M151.041 313.043C152.095 313.043 152.95 312.135 152.95 311.015C152.95 309.895 152.095 308.987 151.041 308.987C149.987 308.987 149.132 309.895 149.132 311.015C149.132 312.135 149.987 313.043 151.041 313.043Z" fill="#2E3594"/>
<path d="M25.579 281.72C25.579 281.72 24.5658 286.655 25.2294 288.084C25.8931 289.512 28.4927 295.147 38.3083 300.251C48.1239 305.354 53.5723 305.666 59.2733 305.854C62.3066 305.953 71.737 306.032 83.2781 305.606C93.4175 305.23 105.373 304.387 113.492 303.862C130.848 302.742 152.318 301.435 156.5 301.31C160.68 301.186 170.751 299.28 176.387 295.968C182.023 292.656 183.606 288.733 183.924 286.057C184.241 283.381 183.516 279.932 183.516 279.932L129.112 288.052H74.8999L48.7195 289.633L25.579 281.72Z" fill="#9167AC"/>
<path d="M114.822 300.32C114.822 300.32 156.382 298.225 160.684 297.888C164.986 297.554 175.283 294.954 180.685 288.582C186.087 282.21 183.47 277.769 182.625 276.51C181.781 275.253 178.66 271.905 172.245 273.242C165.973 274.55 157.139 279.53 153.257 280.199C149.375 280.87 134.017 282.798 123.808 283.383C113.599 283.968 64.8224 285.394 61.5327 285.394C58.2429 285.394 53.3488 284.89 47.4389 282.962C41.5322 281.034 31.9962 278.017 29.3793 278.855C26.7624 279.694 26.7624 279.527 26.0895 281.538C25.4167 283.55 28.7906 289.167 33.5165 292.602C38.2425 296.04 43.2208 301.069 58.7476 302.576C74.2743 304.083 114.822 300.32 114.822 300.32Z" fill="#4955A5"/>
<path d="M88.8525 272.052V268.051L111.259 266.598V275.992C111.259 275.992 108.325 280.161 108.263 280.161C108.198 280.161 96.2998 281.004 96.0054 280.982C95.711 280.959 95.3098 279.36 94.2972 278.201C93.2846 277.042 88.8525 272.052 88.8525 272.052Z" fill="#EAADBD"/>
<path d="M73.2302 295.969C71.8068 296.005 64.3045 294.186 64.0846 294.125C63.8646 294.06 62.8488 290.951 62.8488 290.951V290.431C63.8613 288.661 66.6015 286.397 68.1964 285.092C72.4053 281.65 76.8665 280.384 79.1149 278.931C81.3633 277.478 86.3842 274.387 87.5553 272.802C87.9694 272.24 88.7199 271.555 89.3152 271.939C89.9072 272.327 93.3688 274.368 96.6589 276.076C99.949 277.781 102.417 278.605 105.225 278.162C108.03 277.72 110.101 276.415 110.796 275.256C111.492 274.096 111.408 273.276 111.408 273.276C111.408 273.276 113.792 274.539 114.384 277.361C114.976 280.184 116.115 284.692 116.176 286.817C116.241 288.945 116.07 289.575 116.07 289.575L115.843 291.17C115.843 291.17 95.9827 294.839 91.363 295.262C86.7433 295.682 76.9538 296.04 73.3014 295.956" fill="#4C60AC"/>
<path d="M62.2794 291.406C62.4573 290.67 62.8908 290.163 63.0073 290.344C63.1238 290.521 63.7773 291.587 65.5275 292.239C67.2777 292.891 71.2342 294.377 80.1599 294.219C89.0855 294.061 104.718 292.165 108.422 291.503C112.126 290.841 115.206 289.956 115.636 289.765C116.07 289.575 116.522 289.355 116.522 289.798C116.522 290.24 116.522 293.037 116.522 293.534C116.522 294.031 115.526 295.075 109.561 296.118C103.595 297.161 87.7397 298.533 84.6696 298.675C81.5995 298.817 71.7744 299.037 67.2485 297.758C62.7226 296.479 62.1371 294.645 62.1371 294.645C62.1371 294.645 62.1209 292.229 62.2794 291.487" fill="#FBFEFF"/>
<path d="M71.1455 78.1512L74.0852 77.5786C74.0852 77.5786 73.8402 81.4763 72.9731 84.04C72.106 86.6037 72.0287 86.8738 72.0287 86.8738C72.0287 86.8738 77.6245 99.1394 82.1244 104.866C86.6243 110.595 89.9864 113.185 93.645 113.692C97.3035 114.203 101.004 114.073 101.004 114.073L95.7499 133.932C95.7499 133.932 89.7382 133.551 88.6035 133.421C87.4689 133.291 80.1936 130.916 77.2925 128.457C74.3914 125.997 69.2211 121.328 65.2692 113.178C61.3172 105.031 59.2156 99.2175 58.0809 96.4162C56.9463 93.615 53.004 81.7105 53.004 81.7105L57.1655 80.8841C57.1655 80.8841 59.1511 77.224 60.7274 75.7274C62.3036 74.2308 62.8709 74.1982 62.8709 74.1982C62.8709 74.1982 64.6696 68.0882 65.079 66.3996C65.4884 64.7143 66.6875 62.58 67.9801 62.1018C69.2727 61.6235 71.3227 62.1343 71.7644 63.9172C72.206 65.7001 71.1455 78.1512 71.1455 78.1512Z" fill="#EAADBD"/>
<path d="M200.707 211.828L206.31 209.616L213.967 208.511C213.967 208.511 219.156 212.745 219.412 215.4C219.668 218.054 220.489 225.13 221.376 229.173C222.262 233.216 223.779 237.45 224.857 240.482C225.934 243.514 226.629 245.349 226.629 245.349L209.412 232.838H205.022L200.707 212.009" fill="#EAADBD"/>
<path d="M223.915 205.108C223.915 205.108 227.335 204.949 227.807 204.959C228.283 204.969 229.053 205.579 229.389 206.36C229.725 207.139 232.068 214.66 233.08 220.218C234.093 225.775 234.788 230.339 235.17 234.792C235.549 239.245 236.118 246.795 235.908 249.347C235.697 251.895 234.853 253.496 233.714 254.507C232.576 255.518 228.441 254.507 228.441 254.507L221.942 227.971L223.915 205.108Z" fill="#FBFEFF"/>
<path d="M209.409 232.835C209.409 232.835 213.825 237.669 215.407 239.659C216.989 241.648 220.266 245.565 221.722 247.968C223.178 250.367 225.093 253.212 226.183 253.858C227.276 254.507 229.379 255.011 230.599 253.781C231.819 252.547 231.945 247.509 231.786 245.126C231.628 242.743 230.13 226.412 227.894 217.734C225.659 209.057 224.633 206.616 224.371 205.931C224.106 205.246 223.918 205.111 223.918 205.111C223.918 205.111 217.345 205.227 213.906 206.196C210.467 207.165 206.585 209.335 206.585 209.335C206.585 209.335 209.687 211.511 211.732 216.937C213.524 221.697 211.955 224.875 210.635 227.258C210.15 228.13 209.115 229.741 209.409 232.835Z" fill="#4C60AC"/>
<path d="M118.847 177.699L119.897 181.469C119.897 181.469 105.038 186.933 98.0385 191.06C91.039 195.191 85.0515 199.762 82.844 204.782C80.6365 209.802 79.9436 213.231 80.0081 221.806C80.0725 230.382 82.2156 253.887 82.5926 258.017C82.9697 262.147 83.5368 267.609 83.5368 267.609C83.5368 267.609 86.5081 270.054 99.9495 269.927C113.391 269.801 114.306 267.927 114.306 267.927L112.921 223.268L132.089 215.221C132.089 215.221 134.612 227.018 141.482 235.973C148.356 244.932 152.391 246.964 161.343 247.218C170.296 247.471 181.14 245.377 190.724 243.214C200.308 241.055 202.39 239.805 203.65 239.318C204.91 238.831 205.983 238.428 206.002 235.295C206.025 232.161 205.854 223.141 204.952 219.878C204.049 216.618 202.47 211.906 202.315 211.396C202.158 210.887 201.255 210.445 199.122 210.942C196.989 211.439 164.708 216.277 164.708 216.277L159.929 201.149C159.929 201.149 163.483 192.557 164.563 189.489C165.646 186.424 167.312 180.832 167.312 180.832L157.267 176.423L123.935 171.932L118.847 177.699Z" fill="#5D68B0"/>
<path d="M118.192 151.932C118.192 151.932 116.424 148.031 116.096 145.651C115.767 143.271 116.37 136.686 117.144 132.117C117.921 127.548 127.085 112.957 127.085 112.957C127.085 112.957 129.946 112.419 131.256 112.166C132.565 111.913 133.004 111.932 133.004 111.932C133.004 111.932 126.322 140.765 126.164 142.827C126.003 144.889 124.433 148.865 123.994 149.328C123.555 149.795 118.192 151.932 118.192 151.932Z" fill="#4155A5"/>
<path d="M99.9414 112.932C99.9414 112.932 95.6385 122.135 94.752 128.849C93.8656 135.563 93.8656 137.282 94.2441 138.528C94.6226 139.77 94.7941 140.145 94.7941 140.145L116.81 142.932C116.81 142.932 117.286 135.916 120.239 128.207C123.193 120.498 128.004 113.453 128.004 113.453C128.004 113.453 126.907 113.816 125.885 113.847C124.859 113.876 99.9414 112.932 99.9414 112.932Z" fill="#5D68B0"/>
<path d="M171.004 167.932C171.004 167.932 164.164 165.765 161.828 162.746C159.493 159.728 149.806 149.992 149.295 139.875C148.783 129.757 148.731 123.359 150.962 119.34C153.194 115.321 156.76 112.932 156.76 112.932L164.897 116.064L165.714 125.686L171.004 167.932Z" fill="#3C4CA0"/>
<path d="M202.004 147.051C202.004 147.051 198.711 147.665 194.004 149.542C189.231 151.444 185.386 153.932 185.386 153.932L185.004 153.233C185.004 153.233 189.417 150.026 193.684 148.387C197.95 146.748 201.71 145.932 201.71 145.932C201.811 146.306 201.909 146.68 202.004 147.051Z" fill="#3C4CA0"/>
<path d="M117.004 178.321C117.004 178.321 117.738 157.287 119.061 147.796C120.385 138.306 124.383 125.661 127.818 120.195C131.25 114.729 132.857 112.536 132.857 112.536C132.857 112.536 132.541 117.684 135.503 119.971C138.465 122.257 145.111 119.971 148.858 116.57C152.606 113.17 153.613 111.932 153.613 111.932L156.701 112.981C156.701 112.981 151.067 119.009 150.056 126.866C149.035 134.811 149.238 141.609 154.025 149.872C158.813 158.131 166.015 164.572 167.525 165.569C169.038 166.566 170.004 167.115 170.004 167.115C170.004 167.115 169.711 175.187 169.437 178.087C169.164 180.987 167 181.816 163.137 182.621C159.273 183.427 150.246 184.401 139.621 183.68C128.997 182.959 117.004 178.321 117.004 178.321Z" fill="#F1F1F8"/>
<path d="M161.39 219.342C160.244 218.129 159.436 213.899 159.097 210.677C158.758 207.455 159.436 203.226 159.693 201.638C159.95 200.049 162.921 194.353 164.198 190.502C165.472 186.652 168.107 180.372 168.661 176.437C169.215 172.503 170.15 168.024 169.469 165.052C168.788 162.081 166.41 156.137 166.41 156.137L184.724 147.932C184.724 147.932 187.317 154.042 188.21 158.689C189.102 163.335 189.741 169.278 187.275 177.439C184.809 185.599 179.838 195.605 178.268 198.201C176.694 200.797 175.802 202.427 175.802 202.427C175.802 202.427 176.609 203.682 176.609 204.981C176.609 206.281 175.632 207.366 175.548 208.036C175.463 208.707 175.42 212.304 175.548 213.52C175.675 214.733 176.271 215.738 175.463 216.617C174.655 217.496 173.593 218.459 173.593 218.459C173.593 218.459 173.466 219.463 171.808 219.881C170.15 220.298 169.726 220.214 169.726 220.214C169.726 220.214 169.345 220.843 168.664 220.927C167.983 221.01 164.925 220.089 164.925 220.089C164.925 220.089 163.609 220.34 162.97 220.131C162.325 219.929 161.39 219.342 161.39 219.342Z" fill="#EAADBD"/>
<path d="M186.004 117.003C175.586 115.052 165.858 117.403 165.858 117.403L163.347 117.932C163.347 117.932 160.912 116.48 169.023 115.356C173.062 114.797 177.943 114.878 181.907 115.105C183.427 115.639 184.785 116.282 186.004 117.003Z" fill="#3C4CA0"/>
<path d="M163.723 158.932C163.723 158.932 170.494 157.499 179.083 152.975C187.676 148.451 189.302 147.464 189.749 147.207C190.197 146.949 189.962 146.262 189.749 145.774C189.537 145.285 181.254 132.094 178.613 128.482C175.972 124.87 170.608 119.007 167.797 117.564C164.986 116.121 164.049 115.44 162.73 116.333C161.411 117.225 158.346 121.495 157.409 124.746C156.671 127.309 155.016 134.465 156.811 141.569C157.879 145.774 163.723 158.932 163.723 158.932Z" fill="#5582C3"/>
<path d="M155.004 59.9811C155.004 59.9811 157.132 58.8452 158.826 58.9375C160.519 59.0297 161.529 60.3693 161.801 61.4289C162.072 62.4884 161.993 64.9321 161.993 64.9321L155.004 59.9811Z" fill="#37449B"/>
<path d="M163.817 87.9321C163.817 87.9321 167.163 83.3855 167.792 79.4149C168.421 75.4476 167.876 68.5678 163.021 64.2607C158.166 59.9568 153.898 57.3388 148.206 56.957C142.514 56.5784 134.563 60.5457 131.004 67.6358L139.584 76.7517C139.584 76.7517 143.852 76.92 144.105 77.0462C144.359 77.1724 148.331 80.8032 148.331 80.8032L152.727 82.9551L158.211 85.8255L163.817 87.9321Z" fill="#4C5FAB"/>
<path d="M121.13 70.105C121.13 70.105 118.918 66.2742 118.403 64.6664C117.888 63.0587 117.777 60.5231 118.642 58.9765C119.508 57.4332 122.937 56.2186 126.041 57.4171C129.146 58.6157 134.754 62.0051 137.321 64.0059C141.491 67.2536 150.201 75.3503 153.525 79.7643C156.849 84.1783 141.776 74.6576 141.776 74.6576L125.068 69.4574L121.13 70.105Z" fill="#35429B"/>
<path d="M155.004 82.0263C155.004 82.0263 158.09 79.5999 159.198 71.8379C160.307 64.0759 159.687 60.9321 159.687 60.9321L162.004 62.3635C162.004 62.3635 161.969 69.0148 160.619 74.0495C159.266 79.0842 156.531 82.9321 156.531 82.9321L155.004 82.0263Z" fill="#3A499F"/>
<path d="M132.056 77.6013C131.366 77.9929 128.984 79.2315 126.053 78.6297C123.64 78.133 120.463 76.3087 120.05 73.2108C119.807 71.3896 120.545 69.336 122.042 68.1325C124.933 65.8051 129.729 67.4098 132.637 68.3809C133.536 68.6833 134.356 69.0145 136.713 70.1861C142.293 72.9561 146.569 75.4872 148.529 76.6653C151.512 78.461 154.272 80.1293 157.84 82.6445C160.374 84.4339 162.458 86.0449 164.004 87.2866C163.318 88.0953 162.635 88.9072 161.949 89.7159C161.798 89.3084 161.27 88.0571 159.914 87.3598C159.914 87.3598 159.11 86.9459 158.126 86.9045C156.176 86.8186 154.007 88.4296 152.487 90.9321C150.367 89.5472 148.85 88.1271 147.843 87.0605C146.405 85.5387 145.155 84.1855 144.419 82.0237C144.009 80.8202 143.894 79.76 143.862 79.0436C143.455 79.5594 142.47 80.661 140.789 81.2564C138.118 82.1988 135.781 81.1131 135.279 80.8616C133.247 79.8523 132.338 78.184 132.056 77.6013Z" fill="#171845"/>
<path d="M128.004 85.9321C128.556 85.9321 129.004 85.0367 129.004 83.9321C129.004 82.8276 128.556 81.9321 128.004 81.9321C127.452 81.9321 127.004 82.8276 127.004 83.9321C127.004 85.0367 127.452 85.9321 128.004 85.9321Z" fill="#060A0B"/>
<path d="M138.004 87.9321C138.556 87.9321 139.004 87.0367 139.004 85.9321C139.004 84.8276 138.556 83.9321 138.004 83.9321C137.452 83.9321 137.004 84.8276 137.004 85.9321C137.004 87.0367 137.452 87.9321 138.004 87.9321Z" fill="#060A0B"/>
<path d="M130.917 86.9321C130.917 86.9321 128.921 87.8893 127.369 89.4947C125.756 91.1605 125.673 92.5677 126.597 93.3066C128.286 94.6534 130.405 94.9321 131.004 94.9321" stroke="#060A0B" stroke-miterlimit="10" stroke-linecap="round"/>
<path d="M129.014 97.5388C129.014 97.5388 134.607 98.9114 137.991 96.9321C137.991 96.9321 138.461 103.044 133.834 103.846C129.209 104.651 128.936 99.5962 129.014 97.5388Z" fill="white" stroke="#060A0B" stroke-miterlimit="10"/>
<path d="M131.004 105.932C131.004 105.932 133 106.932 135.004 105.932" stroke="#060A0B" stroke-miterlimit="10"/>
<defs>
<linearGradient id="paint0_linear_236_416" x1="27.6939" y1="22.2745" x2="118.279" y2="85.0668" gradientUnits="userSpaceOnUse">
<stop offset="0.3152" stop-color="#6452A3"/>
<stop offset="0.8589" stop-color="#342B5E"/>
</linearGradient>
</defs>
</svg>
