<svg width="115" height="102" viewBox="0 0 115 102" fill="none" xmlns="http://www.w3.org/2000/svg">
<path d="M94.2996 35.7673C94.4127 41.6662 90.4596 47.5351 85.0412 49.3203C85.2231 46.4282 82.8237 43.9998 79.9719 44.0098H21.3089C-6.95818 43.8203 -7.18436 0.413869 21.122 0H63.1317C55.6531 3.70986 49.4284 9.93286 45.6621 17.4623H21.6137C19.1848 17.4623 17.1197 19.3771 17.0312 21.8403C16.9427 24.4233 18.9783 26.5425 21.5055 26.5425H80.0899C85.2182 26.5425 89.9286 28.3426 93.6408 31.3593C94.0784 32.7755 94.2996 34.2714 94.2996 35.7673Z" fill="url(#paint0_linear_274_1125)"/>
<path d="M115 35.2835C115.059 46.2435 109.827 56.8446 101.223 63.4067C90.5923 71.8386 74.7698 72.8758 63.1857 66.0594C63.0087 67.6301 63.5348 93.8834 62.9497 94.8208C62.4875 97.4736 60.3437 99.5479 58.1557 100.864C40.3616 106.798 46.3749 80.0961 45.426 70.612V54.0672V48.0287H67.7092C68.3385 48.7567 69.0269 49.4398 69.7644 50.0531C69.9316 50.1977 70.0939 50.3274 70.266 50.457C81.3535 59.4525 98.1593 50.5019 98.2478 36.4702C99.536 20.9327 79.4752 10.95 68.6188 22.5184H47.7615C48.4253 20.7681 49.2415 19.0678 50.1757 17.4522H50.2002C68.4369 -13.3586 114.621 -0.623413 115 35.2835Z" fill="url(#paint1_linear_274_1125)"/>
<path d="M41.4579 54.0622V70.607L8.5248 70.597C1.41993 70.8513 -2.35622 61.2975 2.76224 56.4756C4.2373 54.9797 6.27779 54.0522 8.52972 54.0522C8.5248 54.0522 41.4579 54.0622 41.4579 54.0622Z" fill="url(#paint2_linear_274_1125)"/>
<defs>
<linearGradient id="paint0_linear_274_1125" x1="44.5115" y1="-6.62176" x2="70.8893" y2="97.6989" gradientUnits="userSpaceOnUse">
<stop stop-color="#8D51A0"/>
<stop offset="1" stop-color="#65B6DB"/>
</linearGradient>
<linearGradient id="paint1_linear_274_1125" x1="44.5114" y1="-6.62187" x2="70.8892" y2="97.6988" gradientUnits="userSpaceOnUse">
<stop stop-color="#8D51A0"/>
<stop offset="1" stop-color="#65B6DB"/>
</linearGradient>
<linearGradient id="paint2_linear_274_1125" x1="44.5113" y1="-6.62185" x2="70.8891" y2="97.6989" gradientUnits="userSpaceOnUse">
<stop stop-color="#8D51A0"/>
<stop offset="1" stop-color="#65B6DB"/>
</linearGradient>
</defs>
</svg>
